<?xml version="1.0" encoding="UTF-8"?>
<svg xmlns="http://www.w3.org/2000/svg" xmlns:xlink="http://www.w3.org/1999/xlink" width="87px" height="87px" viewBox="0 0 587 587" version="1.1">
<g id="surface1">
<path style=" stroke:none;fill-rule:nonzero;fill:rgb(0%,0%,0%);fill-opacity:1;" d="M 387.960938 52.476562 C 387.960938 52.945312 385.804688 53.976562 383.085938 54.820312 C 377.933594 56.320312 372.308594 59.601562 368.09375 63.535156 C 366.03125 65.410156 365.28125 65.691406 364.15625 64.753906 C 363.03125 63.816406 362.46875 64.191406 361.160156 66.441406 C 360.128906 68.222656 358.628906 69.34375 357.503906 69.34375 C 355.535156 69.34375 350.289062 76.1875 349.070312 80.308594 C 348.320312 83.121094 347.289062 83.027344 341.949219 79.558594 C 332.859375 73.75 330.140625 78.058594 335.855469 89.023438 C 339.136719 95.304688 339.230469 95.960938 343.167969 121.261719 C 343.355469 122.761719 341.574219 123.882812 333.140625 127.632812 C 327.515625 130.164062 321.144531 132.882812 319.082031 133.722656 C 317.019531 134.566406 312.429688 137.285156 308.773438 139.910156 C 300.714844 145.71875 299.777344 146.09375 282.535156 150.875 C 274.757812 153.027344 265.949219 155.558594 262.855469 156.496094 C 259.765625 157.527344 255.359375 158.746094 253.015625 159.308594 C 246.175781 161.085938 227.808594 169.617188 220.59375 174.300781 C 216.9375 176.738281 210.285156 181.421875 205.882812 184.703125 C 201.570312 187.984375 193.792969 193.324219 188.730469 196.605469 C 183.578125 199.882812 175.707031 205.226562 171.019531 208.503906 C 163.054688 214.316406 150.78125 221.15625 148.53125 221.15625 C 147.5 221.15625 139.628906 225.277344 125.101562 233.621094 C 119.667969 236.710938 115.074219 238.398438 108.234375 239.992188 C 97.457031 242.429688 80.121094 247.394531 71.21875 250.675781 C 60.441406 254.515625 54.164062 257.703125 45.542969 263.511719 C 19.210938 281.128906 7.308594 302.683594 1.40625 342.980469 C -4.03125 379.808594 8.339844 414.011719 36.453125 439.5 C 40.109375 442.875 43.105469 446.058594 43.105469 446.714844 C 43.105469 448.027344 35.703125 454.304688 27.175781 460.398438 C 17.804688 466.957031 15.742188 469.488281 15.179688 475.109375 C 14.804688 479.703125 14.804688 479.984375 18.929688 483.824219 C 21.835938 486.542969 29.050781 490.757812 41.511719 496.945312 C 61.097656 506.785156 65.410156 509.875 71.40625 518.03125 C 77.78125 526.652344 83.683594 532.273438 86.402344 532.273438 C 90.429688 532.273438 91.179688 530.304688 89.492188 524.402344 C 87.058594 515.96875 88.460938 516.15625 92.492188 524.777344 C 94.554688 529.179688 96.894531 533.304688 97.738281 533.960938 C 100.082031 535.929688 105.238281 534.992188 106.359375 532.460938 C 107.109375 530.773438 107.765625 530.492188 109.828125 530.867188 C 111.234375 531.242188 113.296875 531.148438 114.421875 530.867188 C 116.292969 530.210938 116.386719 529.742188 115.917969 524.871094 C 115.542969 521.964844 114.886719 516.90625 114.421875 513.53125 C 113.859375 510.15625 113.390625 503.316406 113.390625 498.351562 C 113.390625 486.355469 112.828125 485.699219 97.925781 480.640625 C 86.871094 476.890625 76.28125 471.175781 77.3125 469.394531 C 78.246094 467.988281 81.996094 468.363281 91.648438 470.800781 C 106.640625 474.546875 113.859375 475.390625 124.164062 474.734375 C 142.8125 473.515625 148.71875 472.019531 163.523438 464.800781 C 179.921875 456.835938 187.703125 450.183594 205.976562 428.347656 C 219.28125 412.324219 228.089844 402.953125 229.777344 402.953125 C 230.902344 402.953125 230.808594 403.140625 226.871094 410.636719 C 224.808594 414.386719 220.96875 423.382812 218.34375 430.597656 C 213.941406 442.5 213.472656 444.28125 213.847656 449.996094 C 214.503906 461.523438 217.40625 462.554688 238.867188 458.148438 L 254.046875 455.054688 L 268.011719 456.742188 C 288.066406 459.273438 293.6875 459.179688 299.214844 456.460938 C 303.058594 454.585938 303.714844 453.933594 303.433594 451.871094 C 303.152344 449.152344 300.527344 447.933594 291.34375 446.246094 C 288.535156 445.683594 284.503906 444.65625 282.535156 443.8125 C 279.257812 442.40625 279.070312 442.125 280.378906 440.71875 C 282.066406 439.125 292.1875 437.71875 303.714844 437.71875 C 311.773438 437.625 311.398438 437.4375 323.019531 447.746094 C 330.234375 454.117188 335.011719 456.273438 338.386719 454.398438 C 340.167969 453.464844 340.355469 452.808594 339.792969 449.152344 C 339.324219 445.777344 339.605469 444.46875 341.105469 442.59375 C 342.136719 441.28125 342.980469 439.5 342.980469 438.75 C 342.980469 436.78125 335.574219 427.222656 328.546875 420.101562 C 320.582031 412.136719 319.738281 412.042969 298.839844 417.011719 C 289.65625 419.164062 281.410156 420.757812 280.660156 420.382812 C 279.910156 420.101562 279.257812 418.976562 279.257812 417.851562 C 279.257812 414.667969 286.941406 399.390625 292 392.550781 C 294.53125 389.085938 299.589844 382.148438 303.246094 377.089844 C 306.902344 371.933594 311.679688 365.9375 313.835938 363.59375 C 315.992188 361.253906 318.238281 357.972656 318.800781 356.285156 C 319.457031 354.691406 320.394531 353.285156 320.957031 353.285156 C 321.519531 353.285156 324.050781 355.535156 326.671875 358.160156 C 335.667969 367.53125 342.699219 377.183594 349.070312 388.898438 C 353.285156 396.863281 356.566406 401.640625 359.097656 403.796875 C 361.347656 405.671875 363.875 409.230469 365.09375 412.042969 C 366.3125 414.761719 367.71875 417.011719 368.28125 417.011719 C 368.75 417.011719 370.0625 418.695312 371 420.664062 C 375.214844 428.722656 379.339844 430.878906 407.453125 439.40625 C 413.824219 441.375 414.480469 441.84375 415.792969 444.933594 C 420.851562 457.585938 425.539062 463.863281 429.660156 463.863281 C 434.253906 463.863281 434.347656 459.460938 430.222656 446.152344 C 427.503906 437.34375 430.035156 440.8125 434.441406 451.683594 C 438.75 462.648438 440.0625 464.707031 443.0625 465.457031 C 446.433594 466.300781 455.335938 461.335938 455.992188 458.242188 C 456.179688 456.929688 457.117188 453.746094 457.867188 451.121094 C 459.460938 446.058594 459.273438 440.71875 456.835938 428.066406 C 455.335938 420.007812 453.558594 417.292969 448.121094 414.949219 C 410.917969 398.644531 397.988281 391.332031 392.082031 383.460938 C 387.210938 376.902344 379.433594 360.222656 373.621094 343.917969 C 365.375 320.863281 358.441406 304.277344 352.164062 292.46875 C 348.882812 286.472656 346.164062 281.128906 345.976562 280.472656 C 345.789062 279.816406 353.566406 275.507812 365.09375 269.886719 C 375.777344 264.730469 384.585938 260.515625 384.679688 260.515625 C 385.242188 260.515625 390.019531 275.039062 392.082031 283.003906 C 394.707031 292.65625 395.738281 310.179688 394.144531 317.207031 L 393.300781 320.863281 L 395.832031 319.269531 C 398.738281 317.300781 400.140625 317.863281 399.671875 320.582031 C 399.109375 323.207031 400.046875 325.175781 401.546875 324.613281 C 403.140625 323.957031 404.453125 326.390625 405.296875 331.265625 C 406.140625 335.761719 410.355469 345.789062 411.480469 345.789062 C 411.949219 345.789062 412.324219 344.945312 412.324219 343.917969 C 412.324219 341.292969 413.917969 341.574219 415.699219 344.570312 C 420.664062 352.632812 426.195312 360.316406 432.097656 367.34375 C 442.3125 379.527344 454.867188 396.488281 464.144531 410.449219 C 468.738281 417.382812 474.921875 426.753906 477.921875 431.160156 L 483.355469 439.125 L 483.636719 450.464844 C 484.105469 464.050781 483.824219 463.675781 497.882812 472.300781 C 507.441406 478.203125 508.941406 479.140625 518.402344 485.699219 C 524.308594 489.824219 529.835938 490.667969 531.898438 487.761719 C 535.085938 483.355469 531.992188 478.109375 521.871094 470.332031 C 517.84375 467.238281 514.46875 464.332031 514.46875 463.863281 C 514.46875 462.179688 521.496094 462.929688 533.210938 465.925781 C 542.769531 468.269531 546.328125 469.675781 552.421875 473.515625 C 562.355469 479.609375 568.070312 481.855469 571.070312 480.734375 C 574.066406 479.609375 574.628906 478.578125 573.597656 475.859375 C 572.757812 473.703125 572.945312 473.609375 576.972656 473.609375 C 579.878906 473.703125 581.472656 473.234375 581.941406 472.300781 C 582.316406 471.550781 583.0625 470.050781 583.625 469.019531 C 587 463.300781 587 463.117188 584.46875 457.960938 C 583.15625 455.242188 579.222656 450.277344 575.566406 446.621094 C 569.195312 440.34375 568.820312 440.15625 558.417969 437.0625 C 552.515625 435.285156 543.238281 432.753906 537.707031 431.441406 C 528.898438 429.378906 526.746094 428.441406 519.058594 423.289062 L 510.4375 417.476562 L 503.972656 405.015625 C 500.410156 398.082031 496.195312 390.488281 494.695312 388.148438 C 487.199219 376.058594 478.578125 356.941406 473.609375 341.105469 C 466.863281 319.644531 464.144531 312.617188 455.148438 294.25 L 452.152344 288.160156 L 451.964844 266.605469 C 451.777344 238.398438 451.121094 229.964844 448.496094 219.75 C 447.277344 215.066406 445.964844 206.910156 445.683594 201.476562 C 444.65625 184.515625 441.84375 174.863281 436.59375 169.800781 C 434.160156 167.554688 434.066406 167.273438 435.472656 165.679688 C 436.59375 164.367188 437.8125 164.085938 439.96875 164.554688 C 442.78125 165.023438 443.0625 164.835938 443.625 162.117188 C 444 160.058594 444.5625 159.308594 445.496094 159.589844 C 446.433594 159.964844 448.496094 157.433594 452.152344 151.339844 C 457.492188 142.4375 459.085938 138.128906 459.179688 132.039062 C 459.179688 129.695312 459.835938 128.101562 461.617188 126.414062 C 465.269531 123.136719 466.769531 118.824219 467.707031 109.265625 C 468.082031 104.582031 469.582031 97.644531 470.894531 93.804688 C 473.890625 84.808594 473.890625 81.527344 470.894531 78.714844 C 468.925781 76.9375 467.425781 76.46875 463.582031 76.46875 C 460.867188 76.46875 457.398438 77.21875 455.804688 78.058594 C 453.183594 79.371094 452.621094 79.464844 451.683594 78.246094 C 451.027344 77.5 450.746094 75.90625 451.027344 74.78125 C 451.496094 73 450.746094 72.0625 446.808594 69.34375 C 444.1875 67.566406 439.40625 63.722656 436.125 60.722656 C 432.847656 57.820312 429.378906 54.914062 428.347656 54.445312 C 425.914062 53.039062 397.144531 51.257812 396.394531 52.476562 C 396.113281 52.945312 395.363281 52.945312 394.519531 52.476562 C 392.644531 51.257812 387.960938 51.257812 387.960938 52.476562 Z M 108.328125 270.167969 C 109.265625 271.007812 107.765625 274.382812 105.238281 277.476562 L 102.800781 280.285156 L 105.332031 279.632812 C 108.140625 278.976562 108.328125 279.632812 106.359375 284.222656 C 105.609375 286.097656 104.957031 288.347656 104.957031 289.1875 C 104.957031 290.59375 105.144531 290.59375 106.921875 289 L 108.796875 287.316406 L 108.140625 292.1875 C 107.671875 296.21875 107.765625 297.15625 109.078125 297.625 C 110.109375 298 110.578125 299.308594 110.578125 301.839844 C 110.578125 304.464844 110.953125 305.496094 111.984375 305.496094 C 113.671875 305.496094 113.671875 305.683594 112.265625 314.023438 C 111.609375 318.425781 111.515625 320.863281 112.171875 321.238281 C 112.640625 321.613281 113.484375 324.613281 113.953125 327.984375 C 114.609375 332.953125 115.074219 334.078125 116.480469 333.984375 C 118.261719 333.796875 118.355469 334.171875 118.074219 340.355469 C 117.980469 343.917969 118.167969 344.851562 119.386719 344.851562 C 121.167969 344.851562 121.261719 346.070312 119.855469 348.789062 C 118.917969 350.570312 119.011719 350.664062 121.261719 350.101562 C 123.324219 349.632812 123.882812 349.914062 124.726562 352.070312 C 125.289062 353.566406 125.851562 357.878906 125.851562 361.910156 C 126.132812 372.589844 125.757812 372.964844 97.457031 391.238281 C 92.023438 394.707031 85.839844 399.015625 83.589844 400.796875 C 79.277344 404.265625 69.8125 415.417969 62.316406 425.726562 C 59.785156 429.191406 57.445312 431.910156 57.070312 431.816406 C 55.570312 431.253906 47.605469 423.195312 41.792969 416.636719 C 34.765625 408.574219 27.269531 394.050781 24.644531 383.742188 C 21.179688 369.6875 23.519531 337.730469 29.144531 321.238281 C 31.394531 314.867188 36.078125 304.839844 39.453125 299.121094 C 42.261719 294.4375 51.539062 285.347656 56.507812 282.535156 C 68.503906 275.414062 71.875 274.195312 90.898438 269.980469 C 95.117188 269.042969 107.390625 269.136719 108.328125 270.167969 Z M 195.386719 332.765625 C 196.699219 335.292969 197.726562 338.292969 197.726562 339.417969 C 197.726562 340.636719 198.101562 342.136719 198.570312 342.886719 C 199.226562 343.917969 199.507812 343.824219 200.257812 342.511719 C 201.101562 341.105469 201.570312 341.292969 204.664062 344.289062 C 207.285156 346.914062 208.410156 347.570312 209.628906 346.914062 C 210.753906 346.257812 213.191406 347.007812 218.71875 349.820312 C 225.558594 353.285156 226.964844 353.660156 232.683594 353.566406 C 238.117188 353.472656 238.867188 353.660156 237.929688 354.785156 C 236.992188 355.910156 237.742188 356.097656 242.429688 356.097656 C 253.015625 356.097656 254.515625 360.128906 248.238281 371.933594 C 243.457031 380.835938 242.617188 381.679688 235.679688 383.742188 C 228.089844 385.898438 218.71875 391.519531 212.628906 397.519531 C 209.816406 400.234375 202.976562 408.015625 197.445312 414.761719 C 185.171875 429.753906 171.207031 442.3125 159.121094 449.246094 C 148.4375 455.429688 131.101562 458.898438 115.261719 457.960938 C 106.265625 457.398438 96.519531 455.148438 96.519531 453.558594 C 96.519531 452.339844 106.546875 444.375 110.765625 442.21875 C 112.828125 441.1875 118.636719 437.8125 123.792969 434.816406 C 128.851562 431.722656 141.597656 425.070312 152.089844 419.914062 C 162.492188 414.855469 171.675781 409.886719 172.519531 408.949219 C 179.828125 400.609375 190.230469 356.003906 190.230469 333.140625 C 190.230469 328.078125 190.511719 327.234375 191.636719 327.703125 C 192.480469 327.984375 194.167969 330.234375 195.386719 332.765625 Z M 195.386719 332.765625 "/>
</g>
</svg>
