<?xml version="1.0" encoding="UTF-8"?>
<svg xmlns="http://www.w3.org/2000/svg" xmlns:xlink="http://www.w3.org/1999/xlink" width="400pt" height="400pt" viewBox="0 0 400 400" version="1.1">
<g id="surface1">
<path style=" stroke:none;fill-rule:nonzero;fill:rgb(0%,0%,0%);fill-opacity:1;" d="M 264.367188 35.761719 C 264.367188 36.078125 262.898438 36.78125 261.046875 37.355469 C 257.535156 38.378906 253.703125 40.613281 250.832031 43.296875 C 249.425781 44.570312 248.914062 44.765625 248.148438 44.125 C 247.382812 43.488281 247 43.742188 246.105469 45.273438 C 245.402344 46.488281 244.378906 47.253906 243.613281 47.253906 C 242.273438 47.253906 238.699219 51.914062 237.867188 54.726562 C 237.355469 56.640625 236.652344 56.578125 233.015625 54.214844 C 226.820312 50.253906 224.96875 53.191406 228.863281 60.664062 C 231.097656 64.941406 231.164062 65.390625 233.84375 82.632812 C 233.972656 83.652344 232.757812 84.417969 227.011719 86.972656 C 223.179688 88.699219 218.835938 90.550781 217.433594 91.125 C 216.027344 91.699219 212.898438 93.550781 210.410156 95.339844 C 204.917969 99.296875 204.277344 99.554688 192.527344 102.808594 C 187.230469 104.277344 181.226562 106.003906 179.117188 106.640625 C 177.011719 107.34375 174.011719 108.171875 172.414062 108.558594 C 167.753906 109.769531 155.234375 115.582031 150.320312 118.773438 C 147.828125 120.433594 143.296875 123.628906 140.292969 125.863281 C 137.355469 128.097656 132.054688 131.738281 128.609375 133.972656 C 125.097656 136.207031 119.730469 139.847656 116.539062 142.082031 C 111.109375 146.039062 102.746094 150.703125 101.214844 150.703125 C 100.511719 150.703125 95.148438 153.511719 85.25 159.195312 C 81.546875 161.300781 78.417969 162.453125 73.753906 163.539062 C 66.410156 165.199219 54.597656 168.582031 48.53125 170.816406 C 41.1875 173.433594 36.910156 175.605469 31.035156 179.566406 C 13.089844 191.570312 4.980469 206.257812 0.957031 233.714844 C -2.746094 258.8125 5.683594 282.121094 24.839844 299.488281 C 27.332031 301.789062 29.375 303.960938 29.375 304.40625 C 29.375 305.300781 24.328125 309.578125 18.519531 313.730469 C 12.132812 318.199219 10.726562 319.921875 10.34375 323.753906 C 10.089844 326.882812 10.089844 327.074219 12.898438 329.695312 C 14.878906 331.546875 19.796875 334.417969 28.289062 338.632812 C 41.632812 345.339844 44.570312 347.445312 48.660156 353 C 53 358.875 57.023438 362.707031 58.875 362.707031 C 61.621094 362.707031 62.132812 361.367188 60.984375 357.34375 C 59.324219 351.597656 60.28125 351.722656 63.027344 357.597656 C 64.433594 360.601562 66.027344 363.410156 66.601562 363.855469 C 68.199219 365.199219 71.710938 364.558594 72.476562 362.835938 C 72.988281 361.6875 73.433594 361.496094 74.839844 361.75 C 75.796875 362.003906 77.203125 361.941406 77.96875 361.75 C 79.246094 361.300781 79.308594 360.984375 78.992188 357.664062 C 78.734375 355.683594 78.289062 352.234375 77.96875 349.9375 C 77.585938 347.636719 77.265625 342.976562 77.265625 339.589844 C 77.265625 331.417969 76.882812 330.96875 66.730469 327.523438 C 59.195312 324.96875 51.980469 321.074219 52.683594 319.859375 C 53.320312 318.902344 55.875 319.15625 62.453125 320.816406 C 72.667969 323.371094 77.585938 323.945312 84.609375 323.5 C 97.316406 322.667969 101.339844 321.648438 111.429688 316.730469 C 122.605469 311.300781 127.90625 306.769531 140.359375 291.890625 C 149.425781 280.96875 155.429688 274.585938 156.578125 274.585938 C 157.34375 274.585938 157.28125 274.710938 154.597656 279.820312 C 153.191406 282.375 150.574219 288.503906 148.785156 293.421875 C 145.785156 301.53125 145.464844 302.746094 145.722656 306.640625 C 146.167969 314.496094 148.148438 315.199219 162.769531 312.195312 L 173.117188 310.089844 L 182.632812 311.238281 C 196.296875 312.964844 200.128906 312.898438 203.894531 311.046875 C 206.511719 309.769531 206.960938 309.324219 206.769531 307.917969 C 206.578125 306.066406 204.789062 305.234375 198.53125 304.085938 C 196.617188 303.703125 193.871094 303 192.527344 302.425781 C 190.292969 301.46875 190.167969 301.277344 191.058594 300.320312 C 192.210938 299.234375 199.105469 298.277344 206.960938 298.277344 C 212.453125 298.210938 212.195312 298.085938 220.113281 305.109375 C 225.03125 309.449219 228.289062 310.917969 230.585938 309.640625 C 231.800781 309.003906 231.929688 308.558594 231.546875 306.066406 C 231.226562 303.765625 231.417969 302.875 232.4375 301.597656 C 233.140625 300.703125 233.714844 299.488281 233.714844 298.976562 C 233.714844 297.636719 228.671875 291.125 223.882812 286.269531 C 218.453125 280.84375 217.878906 280.777344 203.640625 284.164062 C 197.382812 285.632812 191.761719 286.71875 191.25 286.460938 C 190.742188 286.269531 190.292969 285.503906 190.292969 284.738281 C 190.292969 282.566406 195.53125 272.160156 198.976562 267.496094 C 200.703125 265.132812 204.152344 260.410156 206.640625 256.960938 C 209.132812 253.449219 212.386719 249.363281 213.855469 247.765625 C 215.324219 246.167969 216.859375 243.933594 217.242188 242.785156 C 217.6875 241.699219 218.328125 240.742188 218.710938 240.742188 C 219.09375 240.742188 220.816406 242.273438 222.605469 244.0625 C 228.734375 250.445312 233.523438 257.023438 237.867188 265.007812 C 240.742188 270.433594 242.976562 273.691406 244.699219 275.160156 C 246.234375 276.4375 247.957031 278.863281 248.785156 280.777344 C 249.617188 282.632812 250.574219 284.164062 250.957031 284.164062 C 251.277344 284.164062 252.171875 285.3125 252.808594 286.652344 C 255.683594 292.144531 258.492188 293.613281 277.648438 299.425781 C 281.992188 300.765625 282.4375 301.085938 283.332031 303.191406 C 286.78125 311.8125 289.972656 316.09375 292.785156 316.09375 C 295.914062 316.09375 295.976562 313.089844 293.167969 304.023438 C 291.316406 298.019531 293.039062 300.382812 296.039062 307.789062 C 298.976562 315.261719 299.871094 316.667969 301.914062 317.175781 C 304.214844 317.753906 310.28125 314.367188 310.726562 312.261719 C 310.855469 311.367188 311.496094 309.195312 312.003906 307.40625 C 313.089844 303.960938 312.964844 300.320312 311.300781 291.699219 C 310.28125 286.207031 309.066406 284.355469 305.363281 282.757812 C 280.011719 271.648438 271.199219 266.667969 267.175781 261.300781 C 263.855469 256.832031 258.558594 245.464844 254.597656 234.355469 C 248.976562 218.644531 244.253906 207.34375 239.972656 199.296875 C 237.738281 195.210938 235.886719 191.570312 235.761719 191.125 C 235.632812 190.675781 240.933594 187.738281 248.785156 183.90625 C 256.066406 180.394531 262.070312 177.523438 262.132812 177.523438 C 262.515625 177.523438 265.773438 187.421875 267.175781 192.847656 C 268.964844 199.425781 269.667969 211.367188 268.582031 216.15625 L 268.007812 218.644531 L 269.730469 217.5625 C 271.710938 216.21875 272.667969 216.601562 272.351562 218.453125 C 271.964844 220.242188 272.605469 221.582031 273.628906 221.199219 C 274.710938 220.753906 275.605469 222.414062 276.179688 225.734375 C 276.757812 228.800781 279.628906 235.632812 280.394531 235.632812 C 280.714844 235.632812 280.96875 235.058594 280.96875 234.355469 C 280.96875 232.566406 282.054688 232.757812 283.269531 234.800781 C 286.652344 240.292969 290.421875 245.53125 294.445312 250.320312 C 301.40625 258.621094 309.960938 270.179688 316.285156 279.695312 C 319.414062 284.417969 323.628906 290.804688 325.671875 293.804688 L 329.375 299.234375 L 329.566406 306.960938 C 329.886719 316.21875 329.695312 315.964844 339.273438 321.839844 C 345.785156 325.863281 346.808594 326.5 353.257812 330.96875 C 357.28125 333.78125 361.046875 334.355469 362.453125 332.375 C 364.625 329.375 362.515625 325.796875 355.621094 320.5 C 352.875 318.390625 350.574219 316.410156 350.574219 316.09375 C 350.574219 314.941406 355.363281 315.453125 363.347656 317.496094 C 369.859375 319.09375 372.285156 320.050781 376.4375 322.667969 C 383.207031 326.820312 387.101562 328.351562 389.144531 327.585938 C 391.1875 326.820312 391.570312 326.117188 390.867188 324.265625 C 390.292969 322.796875 390.421875 322.734375 393.167969 322.734375 C 395.148438 322.796875 396.234375 322.476562 396.550781 321.839844 C 396.808594 321.328125 397.316406 320.304688 397.699219 319.605469 C 400 315.707031 400 315.582031 398.277344 312.070312 C 397.382812 310.21875 394.699219 306.832031 392.210938 304.34375 C 387.867188 300.0625 387.613281 299.9375 380.523438 297.828125 C 376.5 296.617188 370.179688 294.890625 366.410156 293.996094 C 360.410156 292.59375 358.941406 291.953125 353.703125 288.441406 L 347.828125 284.484375 L 343.421875 275.988281 C 340.996094 271.265625 338.121094 266.09375 337.101562 264.496094 C 331.992188 256.257812 326.117188 243.230469 322.734375 232.4375 C 318.136719 217.816406 316.285156 213.027344 310.152344 200.511719 L 308.109375 196.359375 L 307.980469 181.671875 C 307.855469 162.453125 307.40625 156.703125 305.621094 149.746094 C 304.789062 146.550781 303.894531 140.996094 303.703125 137.292969 C 303 125.734375 301.085938 119.15625 297.507812 115.707031 C 295.847656 114.175781 295.785156 113.984375 296.742188 112.898438 C 297.507812 112.003906 298.339844 111.8125 299.808594 112.132812 C 301.722656 112.453125 301.914062 112.324219 302.300781 110.472656 C 302.554688 109.066406 302.9375 108.558594 303.574219 108.75 C 304.214844 109.003906 305.621094 107.28125 308.109375 103.128906 C 311.75 97.0625 312.835938 94.125 312.898438 89.972656 C 312.898438 88.378906 313.347656 87.292969 314.558594 86.144531 C 317.050781 83.90625 318.070312 80.96875 318.710938 74.457031 C 318.964844 71.265625 319.988281 66.539062 320.882812 63.921875 C 322.925781 57.789062 322.925781 55.554688 320.882812 53.640625 C 319.539062 52.425781 318.519531 52.105469 315.898438 52.105469 C 314.046875 52.105469 311.6875 52.617188 310.601562 53.191406 C 308.8125 54.085938 308.429688 54.152344 307.789062 53.320312 C 307.34375 52.808594 307.152344 51.722656 307.34375 50.957031 C 307.664062 49.746094 307.152344 49.105469 304.46875 47.253906 C 302.683594 46.039062 299.425781 43.421875 297.191406 41.378906 C 294.957031 39.398438 292.59375 37.421875 291.890625 37.101562 C 290.230469 36.144531 270.625 34.929688 270.113281 35.761719 C 269.921875 36.078125 269.414062 36.078125 268.835938 35.761719 C 267.5625 34.929688 264.367188 34.929688 264.367188 35.761719 Z M 73.820312 184.101562 C 74.457031 184.675781 73.433594 186.972656 71.710938 189.082031 L 70.050781 190.996094 L 71.773438 190.550781 C 73.691406 190.101562 73.820312 190.550781 72.476562 193.679688 C 71.964844 194.957031 71.519531 196.488281 71.519531 197.0625 C 71.519531 198.019531 71.648438 198.019531 72.859375 196.933594 L 74.136719 195.785156 L 73.691406 199.105469 C 73.371094 201.851562 73.433594 202.492188 74.328125 202.808594 C 75.03125 203.066406 75.351562 203.960938 75.351562 205.683594 C 75.351562 207.472656 75.605469 208.171875 76.308594 208.171875 C 77.457031 208.171875 77.457031 208.300781 76.5 213.984375 C 76.054688 216.984375 75.988281 218.644531 76.4375 218.902344 C 76.757812 219.15625 77.332031 221.199219 77.648438 223.5 C 78.097656 226.882812 78.417969 227.648438 79.375 227.585938 C 80.585938 227.457031 80.652344 227.714844 80.460938 231.929688 C 80.394531 234.355469 80.523438 234.992188 81.355469 234.992188 C 82.566406 234.992188 82.632812 235.824219 81.671875 237.675781 C 81.035156 238.890625 81.097656 238.953125 82.632812 238.570312 C 84.035156 238.25 84.417969 238.441406 84.992188 239.910156 C 85.375 240.933594 85.761719 243.871094 85.761719 246.617188 C 85.953125 253.894531 85.695312 254.152344 66.410156 266.601562 C 62.707031 268.964844 58.492188 271.902344 56.960938 273.117188 C 54.023438 275.480469 47.574219 283.078125 42.464844 290.101562 C 40.742188 292.464844 39.144531 294.316406 38.890625 294.253906 C 37.867188 293.871094 32.4375 288.378906 28.480469 283.90625 C 23.691406 278.417969 18.582031 268.519531 16.792969 261.496094 C 14.433594 251.914062 16.027344 230.140625 19.859375 218.902344 C 21.390625 214.558594 24.585938 207.726562 26.882812 203.832031 C 28.800781 200.636719 35.121094 194.445312 38.503906 192.527344 C 46.679688 187.675781 48.976562 186.84375 61.941406 183.972656 C 64.816406 183.332031 73.179688 183.398438 73.820312 184.101562 Z M 133.140625 226.757812 C 134.035156 228.480469 134.738281 230.523438 134.738281 231.289062 C 134.738281 232.121094 134.992188 233.140625 135.3125 233.652344 C 135.761719 234.355469 135.953125 234.292969 136.460938 233.398438 C 137.035156 232.4375 137.355469 232.566406 139.464844 234.609375 C 141.25 236.398438 142.019531 236.84375 142.847656 236.398438 C 143.613281 235.953125 145.273438 236.460938 149.042969 238.378906 C 153.703125 240.742188 154.660156 240.996094 158.558594 240.933594 C 162.261719 240.867188 162.769531 240.996094 162.132812 241.761719 C 161.496094 242.527344 162.003906 242.65625 165.199219 242.65625 C 172.414062 242.65625 173.433594 245.402344 169.15625 253.449219 C 165.898438 259.515625 165.324219 260.089844 160.601562 261.496094 C 155.429688 262.964844 149.042969 266.792969 144.890625 270.882812 C 142.976562 272.734375 138.3125 278.035156 134.546875 282.632812 C 126.179688 292.847656 116.667969 301.40625 108.429688 306.128906 C 101.148438 310.34375 89.335938 312.707031 78.542969 312.070312 C 72.414062 311.6875 65.773438 310.152344 65.773438 309.066406 C 65.773438 308.238281 72.605469 302.808594 75.480469 301.339844 C 76.882812 300.636719 80.84375 298.339844 84.355469 296.296875 C 87.804688 294.1875 96.488281 289.65625 103.640625 286.144531 C 110.726562 282.695312 116.984375 279.308594 117.5625 278.671875 C 122.542969 272.988281 129.628906 242.59375 129.628906 227.011719 C 129.628906 223.5625 129.820312 222.988281 130.585938 223.308594 C 131.164062 223.5 132.3125 225.03125 133.140625 226.757812 Z M 133.140625 226.757812 "/>
</g>
</svg>
