<?xml version="1.0" standalone="no"?>
<!DOCTYPE svg PUBLIC "-//W3C//DTD SVG 20010904//EN"
 "http://www.w3.org/TR/2001/REC-SVG-20010904/DTD/svg10.dtd">
<svg version="1.0" xmlns="http://www.w3.org/2000/svg"
 width="626.000000pt" height="626.000000pt" viewBox="0 0 626.000000 626.000000"
 preserveAspectRatio="xMidYMid meet">
<metadata>
Created by potrace 1.15, written by Peter Selinger 2001-2017
</metadata>
<g transform="translate(0.000000,626.000000) scale(0.100000,-0.100000)"
fill="#000000" stroke="none">
<path d="M4140 5700 c0 -5 -23 -16 -52 -25 -55 -16 -115 -51 -160 -93 -22 -20
-30 -23 -42 -13 -12 10 -18 6 -32 -18 -11 -19 -27 -31 -39 -31 -21 0 -77 -73
-90 -117 -8 -30 -19 -29 -76 8 -97 62 -126 16 -65 -101 35 -67 36 -74 78 -344
2 -16 -17 -28 -107 -68 -60 -27 -128 -56 -150 -65 -22 -9 -71 -38 -110 -66
-86 -62 -96 -66 -280 -117 -83 -23 -177 -50 -210 -60 -33 -11 -80 -24 -105
-30 -73 -19 -269 -110 -346 -160 -39 -26 -110 -76 -157 -111 -46 -35 -129 -92
-183 -127 -55 -35 -139 -92 -189 -127 -85 -62 -216 -135 -240 -135 -11 0 -95
-44 -250 -133 -58 -33 -107 -51 -180 -68 -115 -26 -300 -79 -395 -114 -115
-41 -182 -75 -274 -137 -281 -188 -408 -418 -471 -848 -58 -393 74 -758 374
-1030 39 -36 71 -70 71 -77 0 -14 -79 -81 -170 -146 -100 -70 -122 -97 -128
-157 -4 -49 -4 -52 40 -93 31 -29 108 -74 241 -140 209 -105 255 -138 319
-225 68 -92 131 -152 160 -152 43 0 51 21 33 84 -26 90 -11 88 32 -4 22 -47
47 -91 56 -98 25 -21 80 -11 92 16 8 18 15 21 37 17 15 -4 37 -3 49 0 20 7 21
12 16 64 -4 31 -11 85 -16 121 -6 36 -11 109 -11 162 0 128 -6 135 -165 189
-118 40 -231 101 -220 120 10 15 50 11 153 -15 160 -40 237 -49 347 -42 199
13 262 29 420 106 175 85 258 156 453 389 142 171 236 271 254 271 12 0 11 -2
-31 -82 -22 -40 -63 -136 -91 -213 -47 -127 -52 -146 -48 -207 7 -123 38 -134
267 -87 l162 33 149 -18 c214 -27 274 -26 333 3 41 20 48 27 45 49 -3 29 -31
42 -129 60 -30 6 -73 17 -94 26 -35 15 -37 18 -23 33 18 17 126 32 249 32 86
1 82 3 206 -107 77 -68 128 -91 164 -71 19 10 21 17 15 56 -5 36 -2 50 14 70
11 14 20 33 20 41 0 21 -79 123 -154 199 -85 85 -94 86 -317 33 -98 -23 -186
-40 -194 -36 -8 3 -15 15 -15 27 0 34 82 197 136 270 27 37 81 111 120 165 39
55 90 119 113 144 23 25 47 60 53 78 7 17 17 32 23 32 6 0 33 -24 61 -52 96
-100 171 -203 239 -328 45 -85 80 -136 107 -159 24 -20 51 -58 64 -88 13 -29
28 -53 34 -53 5 0 19 -18 29 -39 45 -86 89 -109 389 -200 68 -21 75 -26 89
-59 54 -135 104 -202 148 -202 49 0 50 47 6 189 -29 94 -2 57 45 -59 46 -117
60 -139 92 -147 36 -9 131 44 138 77 2 14 12 48 20 76 17 54 15 111 -11 246
-16 86 -35 115 -93 140 -397 174 -535 252 -598 336 -52 70 -135 248 -197 422
-88 246 -162 423 -229 549 -35 64 -64 121 -66 128 -2 7 81 53 204 113 114 55
208 100 209 100 6 0 57 -155 79 -240 28 -103 39 -290 22 -365 l-9 -39 27 17
c31 21 46 15 41 -14 -6 -28 4 -49 20 -43 17 7 31 -19 40 -71 9 -48 54 -155 66
-155 5 0 9 9 9 20 0 28 17 25 36 -7 53 -86 112 -168 175 -243 109 -130 243
-311 342 -460 49 -74 115 -174 147 -221 l58 -85 3 -121 c5 -145 2 -141 152
-233 102 -63 118 -73 219 -143 63 -44 122 -53 144 -22 34 47 1 103 -107 186
-43 33 -79 64 -79 69 0 18 75 10 200 -22 102 -25 140 -40 205 -81 106 -65 167
-89 199 -77 32 12 38 23 27 52 -9 23 -7 24 36 24 31 -1 48 4 53 14 4 8 12 24
18 35 36 61 36 63 9 118 -14 29 -56 82 -95 121 -68 67 -72 69 -183 102 -63 19
-162 46 -221 60 -94 22 -117 32 -199 87 l-92 62 -69 133 c-38 74 -83 155 -99
180 -80 129 -172 333 -225 502 -72 229 -101 304 -197 500 l-32 65 -2 230 c-2
301 -9 391 -37 500 -13 50 -27 137 -30 195 -11 181 -41 284 -97 338 -26 24
-27 27 -12 44 12 14 25 17 48 12 30 -5 33 -3 39 26 4 22 10 30 20 27 10 -4 32
23 71 88 57 95 74 141 75 206 0 25 7 42 26 60 39 35 55 81 65 183 4 50 20 124
34 165 32 96 32 131 0 161 -21 19 -37 24 -78 24 -29 0 -66 -8 -83 -17 -28 -14
-34 -15 -44 -2 -7 8 -10 25 -7 37 5 19 -3 29 -45 58 -28 19 -79 60 -114 92
-35 31 -72 62 -83 67 -26 15 -333 34 -341 21 -3 -5 -11 -5 -20 0 -20 13 -70
13 -70 0z m-2984 -2323 c10 -9 -6 -45 -33 -78 l-26 -30 27 7 c30 7 32 0 11
-49 -8 -20 -15 -44 -15 -53 0 -15 2 -15 21 2 l20 18 -7 -52 c-5 -43 -4 -53 10
-58 11 -4 16 -18 16 -45 0 -28 4 -39 15 -39 18 0 18 -2 3 -91 -7 -47 -8 -73
-1 -77 5 -4 14 -36 19 -72 7 -53 12 -65 27 -64 19 2 20 -2 17 -68 -1 -38 1
-48 14 -48 19 0 20 -13 5 -42 -10 -19 -9 -20 15 -14 22 5 28 2 37 -21 6 -16
12 -62 12 -105 3 -114 -1 -118 -303 -313 -58 -37 -124 -83 -148 -102 -46 -37
-147 -156 -227 -266 -27 -37 -52 -66 -56 -65 -16 6 -101 92 -163 162 -75 86
-155 241 -183 351 -37 150 -12 491 48 667 24 68 74 175 110 236 30 50 129 147
182 177 128 76 164 89 367 134 45 10 176 9 186 -2z m929 -668 c14 -27 25 -59
25 -71 0 -13 4 -29 9 -37 7 -11 10 -10 18 4 9 15 14 13 47 -19 28 -28 40 -35
53 -28 12 7 38 -1 97 -31 73 -37 88 -41 149 -40 58 1 66 -1 56 -13 -10 -12 -2
-14 48 -14 113 0 129 -43 62 -169 -51 -95 -60 -104 -134 -126 -81 -23 -181
-83 -246 -147 -30 -29 -103 -112 -162 -184 -131 -160 -280 -294 -409 -368
-114 -66 -299 -103 -468 -93 -96 6 -200 30 -200 47 0 13 107 98 152 121 22 11
84 47 139 79 54 33 190 104 302 159 111 54 209 107 218 117 78 89 189 565 189
809 0 54 3 63 15 58 9 -3 27 -27 40 -54z"/>
</g>
</svg>
